<svg id="Layer_1" data-name="Layer 1" xmlns="http://www.w3.org/2000/svg" viewBox="0 0 700 323.57"><defs><style>.cls-1{fill:#04203e;}.cls-2{fill:#d63b30;}</style></defs><title>logo</title><rect class="cls-1" x="119.89" y="114.14" width="20.26" height="164.6" rx="4.99"/><path class="cls-1" d="M208.15,167.77c-32.86,0-56.72,23.68-56.72,56.29s23.86,56.08,56.72,56.08c32.69,0,56.41-23.58,56.41-56.08S240.84,167.77,208.15,167.77Zm0,93.41c-20.6,0-36.14-16-36.14-37.12,0-21.62,15.2-37.32,36.14-37.32,20.76,0,35.82,15.7,35.82,37.33S228.91,261.18,208.15,261.18Z"/><path class="cls-1" d="M455.34,167.77c-32.87,0-56.73,23.68-56.73,56.29s23.86,56.08,56.73,56.08c32.68,0,56.4-23.58,56.4-56.08S488,167.77,455.34,167.77Zm0,93.41c-20.61,0-36.15-16-36.15-37.12,0-21.62,15.2-37.32,36.15-37.32,20.75,0,35.82,15.7,35.82,37.33S476.09,261.18,455.34,261.18Z"/><path class="cls-1" d="M581.61,168a32.18,32.18,0,0,0-4.23-.18h-.55A40.3,40.3,0,0,0,549,179.06l-5.62,5.36V174.05a5,5,0,0,0-5-5H528a5,5,0,0,0-5,5v99.71a5,5,0,0,0,5,5H538.4a5,5,0,0,0,5-5v-48c0-21.49,12.58-35.93,31.3-35.93.86,0,1.87,0,2.91.07l.66,0h0a4.78,4.78,0,0,0,4.75-4.79v-17Z"/><path class="cls-1" d="M699.39,170.7a3.94,3.94,0,0,0-3.36-1.64H684.64a7,7,0,0,0-6.1,4.14l-30.15,76-32.5-76.11a7.14,7.14,0,0,0-6.15-4.07h-11.5a3.66,3.66,0,0,0-3.51,5.38l42.39,96.48a7.47,7.47,0,0,1,.09,4.83L620.7,316.91a3.75,3.75,0,0,0,3.63,5.37h11.41a7,7,0,0,0,6.11-4.13l57.81-143.72A3.94,3.94,0,0,0,699.39,170.7Z"/><path class="cls-1" d="M103.62,169.06H93.34a5,5,0,0,0-5,5v7.69h0l-5.32-4a51.58,51.58,0,0,0-30.82-10C22.44,167.77,0,191.24,0,222.35c0,31.5,22.32,54.36,53.07,54.36,11.75,0,21.92-3.31,30.22-9.85l5.38-4.24V274c0,18.37-13.68,30.23-34.85,30.23-14.85,0-34.31-9.36-34.51-9.46a3.51,3.51,0,0,0-.91-.27,4.24,4.24,0,0,0-5.25,3.11L9.58,311.3l1.07.64c12.87,7.71,27.69,11.63,44,11.63,34.77,0,53.93-19.23,53.93-54.15V174.05A5,5,0,0,0,103.62,169.06ZM54.46,257.52a33,33,0,0,1-24.37-10.09c-6.06-6.45-9.4-15.55-9.4-25.62,0-20.26,14.2-35,33.77-35,20.33,0,34.53,14.28,34.53,34.74C89,243.08,75.12,257.52,54.46,257.52Z"/><path class="cls-1" d="M409.65,152.91l10-19.94H279c-8.2,0-15,3.43-18.71,9.4s-3.71,13.61,0,20.94L315.45,273.8c3.83,7.68,10,12.08,16.87,12.08s13-4.4,16.88-12.08l50.47-100.94H377.51l-41.1,82.34-.05-.33-4,8.08L278,154.39a6.37,6.37,0,0,1-.53-1.35,7,7,0,0,1,1.44-.13Z"/><path class="cls-2" d="M546.76,122.57,491.52,12.08C487.68,4.4,481.53,0,474.64,0s-13,4.4-16.88,12.08L407.37,113h22.22l45.05-90.09,54.28,108.56a7.42,7.42,0,0,1,.54,1.35A7.17,7.17,0,0,1,528,133H434.53l-10,19.94H528c8.2,0,15-3.43,18.71-9.4S550.43,129.9,546.76,122.57Z"/></svg>